<svg xmlns="http://www.w3.org/2000/svg" width="30" height="30" viewBox="0 0 30 30">
  <g id="Group_2117" data-name="Group 2117" transform="translate(-554 -34)">
    <rect id="Rectangle_141" data-name="Rectangle 141" width="30" height="30" transform="translate(554 34)" fill="none"/>
    <path id="Path_1608" data-name="Path 1608" d="M588.141,280.357h11.242a.334.334,0,1,0,0-.667H588.141a.334.334,0,0,0,0,.667Z" transform="translate(-30.537 -235.083)" fill="#1d1d1d"/>
    <path id="Path_1609" data-name="Path 1609" d="M599.382,283.221H588.141a.334.334,0,0,0,0,.667h11.242a.334.334,0,1,0,0-.667Z" transform="translate(-30.537 -227.836)" fill="#1d1d1d"/>
    <path id="Path_1610" data-name="Path 1610" d="M615.881,278.091l-.023-.027a2.16,2.16,0,0,0-1.577-.76,2.327,2.327,0,0,0-1.548.7l-4.791,5.059a.385.385,0,0,0-.109.273.4.4,0,0,0,.014.1l-.285.3-.132-.137-.5.532V277.2H586.552v24.378h20.374V290.8l3.663-3.865-.13-.14.285-.3a.347.347,0,0,0,.1.015.354.354,0,0,0,.259-.115l4.722-4.986a2.693,2.693,0,0,0,.731-1.7A2.3,2.3,0,0,0,615.881,278.091Zm-9.692,13.49V300.8h-18.9V277.976h18.9v6.936l-4.115,4.345.3.31-.1.611H590.532a.39.39,0,0,0,0,.778h11.611l-.311,1.9,3.117-.568.285.3.955-1.009.369-.389Zm-3.4.893-.685.137-.049.009.13-.781.158.167.345-2.1,1.94,2.051-1.991.362Zm2.443-.984-2.115-2.233,4.311-4.554,2.118,2.236Zm4.834-4.828-2.377-2.509.244-.258,2.377,2.51Zm5.238-5.806-4.466,4.718-2.118-2.236,4.532-4.782,0,0a1.59,1.59,0,0,1,1.027-.468,1.439,1.439,0,0,1,1.044.523l.017.021a1.53,1.53,0,0,1,.469,1.063A1.9,1.9,0,0,1,615.306,280.856Z" transform="translate(-32.552 -240.198)" fill="#1d1d1d"/>
    <path id="Path_1611" data-name="Path 1611" d="M594.034,281.008a.3.3,0,0,0,.417,0l3.075-3.078a.293.293,0,0,0,0-.414l0,0a.288.288,0,0,0-.414,0l-3.078,3.075a.293.293,0,0,0,0,.414Z" transform="translate(-18.357 -239.833)" fill="#1d1d1d"/>
    <path id="Path_2752" data-name="Path 2752" d="M573.929,37.3s.283,7.143,0,7.483-3.968,4.308-3.968,4.308l-.624,3.4s3-.453,3.174-.567,1.644-1.417,1.644-1.417l-.227,10.431H554.372V37.3Z"/>
  </g>
</svg>
