<svg xmlns="http://www.w3.org/2000/svg" width="36" height="36" viewBox="0 0 36 36">
  <g id="Group_1919" data-name="Group 1919" transform="translate(-1058 -756)">
    <g id="_print" data-name=" print" transform="translate(1058 756)">
      <rect id="Path" width="36" height="36" transform="translate(0)" fill="rgba(0,0,0,0)"/>
      <path id="Icon" d="M21.7,28H9.3a3.109,3.109,0,0,1-3.1-3.111V21.777H3.1A3.109,3.109,0,0,1,0,18.666V12.443A4.664,4.664,0,0,1,4.651,7.777h21.7A4.664,4.664,0,0,1,31,12.443v6.223a3.109,3.109,0,0,1-3.1,3.111H24.8v3.112A3.109,3.109,0,0,1,21.7,28ZM9.3,17.111h0v6.222a1.555,1.555,0,0,0,1.55,1.557h9.3a1.555,1.555,0,0,0,1.55-1.557V17.111Zm17.049-6.222a1.555,1.555,0,1,0,1.55,1.555A1.554,1.554,0,0,0,26.349,10.889Zm-3.1-4.668H7.75A1.554,1.554,0,0,1,6.2,4.666V1.555A1.554,1.554,0,0,1,7.75,0h15.5A1.554,1.554,0,0,1,24.8,1.555V4.666A1.554,1.554,0,0,1,23.25,6.222Z" transform="translate(3 4)" fill="#707070"/>
    </g>
  </g>
</svg>
