<svg xmlns="http://www.w3.org/2000/svg" width="30" height="30" viewBox="0 0 30 30">
  <g id="Group_874" data-name="Group 874" transform="translate(-763 -40)">
    <rect id="Rectangle_140" data-name="Rectangle 140" width="30" height="30" transform="translate(763 40)" fill="none"/>
    <g id="Group_873" data-name="Group 873" transform="translate(28.487 -437.665)">
      <path id="Path_3" data-name="Path 3" d="M759.86,507.665a.713.713,0,0,0,.453-.161l2.926-2.377a.715.715,0,0,0,.262-.484.724.724,0,0,0-.157-.528L756,495.067a10.848,10.848,0,1,0-9.753,4.224,10.968,10.968,0,0,0,1.137.059,10.731,10.731,0,0,0,4.561-1.014L759.3,507.4A.718.718,0,0,0,759.86,507.665Zm-13.469-9.806a9.4,9.4,0,1,1,6.9-2.055A9.344,9.344,0,0,1,746.391,497.859Zm7.806-.937a11.08,11.08,0,0,0,.836-.755l6.739,8.3-1.809,1.469-6.746-8.3A10.958,10.958,0,0,0,754.2,496.922Z" fill="#272525"/>
      <path id="Path_4" data-name="Path 4" d="M753.767,483.744a7.934,7.934,0,1,0-1.157,11.167A7.892,7.892,0,0,0,753.767,483.744Zm-2.065,10.05a6.5,6.5,0,1,1,.947-9.143A6.506,6.506,0,0,1,751.7,493.794Z" transform="translate(-0.245 -0.244)" fill="#272525"/>
    </g>
  </g>
</svg>
